<svg width="26" height="24" viewBox="0 0 26 24" fill="none" xmlns="http://www.w3.org/2000/svg">
<path d="M3.57143 9.67252V22.1538C3.57143 22.3782 3.66173 22.5935 3.82248 22.7522C3.98323 22.9108 4.20124 23 4.42857 23H9.57143V15.8074C9.57143 15.4708 9.70689 15.1479 9.94801 14.9099C10.1891 14.6718 10.5162 14.5381 10.8571 14.5381H15.1429C15.4838 14.5381 15.8109 14.6718 16.052 14.9099C16.2931 15.1479 16.4286 15.4708 16.4286 15.8074V23H21.5714C21.7988 23 22.0168 22.9108 22.1775 22.7522C22.3383 22.5935 22.4286 22.3782 22.4286 22.1538V9.67252M25 11.9995L13.5834 1.21062C13.3155 0.931381 12.6893 0.928208 12.4166 1.21062L1 11.9995M20.7143 7.92725V1.84527H18.1429V5.49446" stroke="white" stroke-linecap="round" stroke-linejoin="round"/>
</svg>
