<svg width="24" height="24" viewBox="0 0 24 24" fill="none" xmlns="http://www.w3.org/2000/svg">
<path fill-rule="evenodd" clip-rule="evenodd" d="M9.7045 0C7.78513 0 5.90886 0.569159 4.31297 1.6355C2.71707 2.70185 1.47322 4.21748 0.738715 5.99074C0.00420475 7.76401 -0.187976 9.71526 0.186473 11.5977C0.560923 13.4802 1.48519 15.2094 2.84238 16.5666C4.19958 17.9238 5.92876 18.8481 7.81124 19.2225C9.69373 19.597 11.645 19.4048 13.4182 18.6703C14.4459 18.2446 15.387 17.6479 16.2042 16.9108C16.2088 16.9157 16.2134 16.9205 16.2181 16.9252L22.6465 23.3536C22.8417 23.5488 23.1583 23.5488 23.3536 23.3536C23.5488 23.1583 23.5488 22.8417 23.3536 22.6464L16.9252 16.2181C16.9205 16.2134 16.9157 16.2088 16.9108 16.2042C17.2235 15.8575 17.512 15.4874 17.7735 15.096C18.8398 13.5001 19.409 11.6239 19.409 9.70449V9.70446C19.4088 7.13073 18.3863 4.66246 16.5664 2.84255C14.7465 1.02265 12.2783 0.000163823 9.70453 0L9.7045 0.5V0ZM15.8593 3.54966C14.227 1.91728 12.013 1.00015 9.7045 1H9.70446C7.98289 1.00001 6.29998 1.51052 4.86854 2.46697C3.43709 3.42343 2.32142 4.78289 1.66259 6.37343C1.00377 7.96396 0.831394 9.71415 1.16726 11.4027C1.50312 13.0912 2.33215 14.6422 3.54949 15.8595C4.76684 17.0768 6.31783 17.9059 8.00633 18.2417C9.69484 18.5776 11.445 18.4052 13.0356 17.7464C14.6261 17.0876 15.9856 15.9719 16.942 14.5404C17.8985 13.109 18.409 11.4261 18.409 9.70452V9.70449C18.4088 7.39597 17.4917 5.18203 15.8593 3.54966Z" fill="white"/>
</svg>
