<svg width="13" height="21" viewBox="0 0 13 21" fill="none" xmlns="http://www.w3.org/2000/svg">
<path fill-rule="evenodd" clip-rule="evenodd" d="M6.1315 1.00064C7.185 0.98775 8.07947 1.16894 8.5704 1.40816C9.5451 1.88561 11.25 2.95607 11.25 5.18819C11.25 7.57382 9.77688 8.65134 7.81338 10.0016C6.79562 10.7015 6.12197 11.4185 5.70731 12.1893C5.29084 12.9635 5.15626 13.7538 5.15626 14.5632C5.15626 14.8393 5.38012 15.0632 5.65626 15.0632C5.9324 15.0632 6.15626 14.8393 6.15626 14.5632C6.15626 13.8703 6.27011 13.254 6.58797 12.6631C6.90764 12.0688 7.4542 11.4622 8.38 10.8256C10.3036 9.50276 12.25 8.1545 12.25 5.18819C12.25 2.33472 10.0402 1.01455 9.00978 0.509853L9.00896 0.509453C8.32683 0.176906 7.2599 -0.0132878 6.11887 0.000723551L6.11818 0.000732611C4.85337 0.0179998 3.38416 0.298841 2.14723 1.31837L2.14721 1.31838C1.12792 2.15858 0.590859 3.10737 0.309653 3.85067C0.169313 4.22161 0.0925348 4.54161 0.0506189 4.77254C0.02964 4.88813 0.0173223 4.9818 0.0101459 5.04888C0.00655532 5.08244 0.00424648 5.10939 0.00278259 5.12915L0.0011642 5.15336L0.000727419 5.1613L0.000584368 5.1642L0.000529055 5.16538L0.000506167 5.16591C0.000494723 5.16615 0.000485186 5.16638 0.473646 5.18703L0.000484233 5.16639C-0.011554 5.44227 0.202332 5.67567 0.478212 5.68771C0.753596 5.69973 0.986656 5.48662 0.999467 5.21146L1.00005 5.20303C1.00074 5.19371 1.00208 5.17761 1.00447 5.15526C1.00926 5.11055 1.01822 5.04104 1.03454 4.95113C1.06723 4.77107 1.12909 4.51076 1.24496 4.20451C1.47615 3.59341 1.92169 2.80022 2.78326 2.09003C3.77982 1.26863 4.9929 1.01623 6.1315 1.00064ZM7.53126 19.0157C7.53126 20.0513 6.69179 20.8907 5.65626 20.8907C4.62073 20.8907 3.78126 20.0513 3.78126 19.0157C3.78126 17.9802 4.62073 17.1407 5.65626 17.1407C6.69179 17.1407 7.53126 17.9802 7.53126 19.0157ZM0.999476 5.21125C0.999489 5.21097 0.999502 5.2107 0.999514 5.21042L0.999497 5.21081L0.999476 5.21125Z" fill="white"/>
</svg>
